<?xml version="1.0" encoding="UTF-8" standalone="no"?>
<!-- Created with Inkscape (http://www.inkscape.org/) -->

<svg
   version="1.1"
   id="svg2"
   width="468.66132"
   height="468.66132"
   viewBox="0 0 468.66132 468.66132"
   sodipodi:docname="logo.ai"
   xmlns:inkscape="http://www.inkscape.org/namespaces/inkscape"
   xmlns:sodipodi="http://sodipodi.sourceforge.net/DTD/sodipodi-0.dtd"
   xmlns="http://www.w3.org/2000/svg"
   xmlns:svg="http://www.w3.org/2000/svg">
  <defs
     id="defs6">
    <clipPath
       clipPathUnits="userSpaceOnUse"
       id="clipPath16">
      <path
         d="M 0,0 H 351.496 V 351.496 H 0 Z"
         id="path14" />
    </clipPath>
  </defs>
  <sodipodi:namedview
     id="namedview4"
     pagecolor="#ffffff"
     bordercolor="#000000"
     borderopacity="0.25"
     inkscape:showpageshadow="2"
     inkscape:pageopacity="0.0"
     inkscape:pagecheckerboard="0"
     inkscape:deskcolor="#d1d1d1" />
  <g
     id="g8"
     inkscape:groupmode="layer"
     inkscape:label="logo"
     transform="matrix(1.3333333,0,0,-1.3333333,0,468.66133)">
    <g
       id="g10">
      <g
         id="g12"
         clip-path="url(#clipPath16)">
        <g
           id="g18"
           transform="translate(339.2139,175.9385)">
          <path
             d="m 0,0 c 0,-90.128 -73.063,-163.19 -163.19,-163.19 -90.128,0 -163.19,73.062 -163.19,163.19 0,90.127 73.062,163.189 163.19,163.189 C -73.063,163.189 0,90.127 0,0"
             style="fill:#ffffff;fill-opacity:1;fill-rule:evenodd;stroke:none"
             id="path20" />
        </g>
        <g
           id="g22"
           transform="translate(176.0234,346.0166)">
          <path
             d="m 0,0 c -22.957,0 -45.231,-4.498 -66.204,-13.368 -20.254,-8.567 -38.442,-20.829 -54.06,-36.446 -15.617,-15.618 -27.88,-33.806 -36.446,-54.06 -8.871,-20.973 -13.368,-43.247 -13.368,-66.204 0,-22.958 4.497,-45.232 13.368,-66.205 8.566,-20.254 20.829,-38.442 36.446,-54.06 15.618,-15.617 33.806,-27.88 54.06,-36.446 20.973,-8.871 43.247,-13.368 66.204,-13.368 22.957,0 45.232,4.497 66.205,13.368 20.253,8.566 38.441,20.829 54.059,36.446 15.618,15.618 27.88,33.806 36.446,54.06 8.872,20.973 13.369,43.247 13.369,66.205 0,22.957 -4.497,45.231 -13.369,66.204 -8.566,20.254 -20.828,38.442 -36.446,54.06 -15.618,15.617 -33.806,27.879 -54.059,36.446 C 45.232,-4.498 22.957,0 0,0 m 0,-6.889 c 90.127,0 163.19,-73.062 163.19,-163.189 0,-90.128 -73.063,-163.191 -163.19,-163.191 -90.127,0 -163.189,73.063 -163.189,163.191 0,90.127 73.062,163.189 163.189,163.189"
             style="fill:#000000;fill-opacity:1;fill-rule:nonzero;stroke:none"
             id="path24" />
        </g>
        <g
           id="g26"
           transform="translate(154.1948,198.2075)">
          <path
             d="m 0,0 c 3.683,-0.297 6.187,-1.513 5.283,3.007 -0.865,4.292 -1.555,10.446 -4.17,12.811 -2.508,2.313 -13.104,1.635 -13.104,1.635 -4.525,0 -4.721,1.132 -5.153,3.729 -0.444,2.657 -0.785,4.522 3.383,4.522 h 11.323 c 2.112,0 2.469,1.253 1.959,2.915 l -6.386,27.008 c -0.75,3.014 0.337,4.055 2.57,4.055 l 20.51,10e-4 c 2.334,0.027 3.673,-0.997 3.673,-4.067 0,-1.172 0.07,-49.193 0,-70.575 0,-2.989 -1.442,-4.138 -3.977,-4.138 -23.617,0 -53.631,-0.721 -77.122,-1.249 -3.053,-0.063 -4.832,0.587 -4.832,4.084 V 4.899 c 0,2.76 1.325,3.603 4.536,3.431 C -52.614,7.851 -12.422,0.832 0,0"
             style="fill:#186036;fill-opacity:1;fill-rule:evenodd;stroke:none"
             id="path28" />
        </g>
        <g
           id="g30"
           transform="translate(197.8594,198.2075)">
          <path
             d="m 0,0 c -3.699,-0.297 -6.189,-1.513 -5.286,3.007 0.854,4.292 1.56,10.446 4.168,12.811 2.502,2.313 13.101,1.635 13.101,1.635 4.531,0 4.725,1.132 5.153,3.729 0.447,2.657 0.786,4.522 -3.386,4.522 H 2.438 c -2.125,0 -2.475,1.253 -1.965,2.915 l 6.385,27.008 c 0.747,3.014 -0.335,4.055 -2.562,4.055 l -20.518,10e-4 c -2.333,0.027 -3.672,-0.997 -3.672,-4.067 0,-1.172 -0.068,-49.193 0,-70.575 0,-2.989 1.442,-4.138 3.977,-4.138 23.616,0 53.634,-0.721 77.125,-1.249 3.054,-0.063 4.827,0.587 4.827,4.084 V 4.899 c 0,2.76 -1.321,3.603 -4.533,3.431 C 52.604,7.851 12.421,0.832 0,0"
             style="fill:#186036;fill-opacity:1;fill-rule:evenodd;stroke:none"
             id="path32" />
        </g>
        <g
           id="g34"
           transform="translate(154.1948,153.6689)">
          <path
             d="m 0,0 c 3.683,0.297 6.187,1.513 5.283,-3.008 -0.865,-4.293 -1.555,-10.445 -4.17,-12.81 -2.508,-2.314 -13.104,-1.635 -13.104,-1.635 -4.525,0 -4.721,-1.132 -5.153,-3.73 -0.444,-2.657 -0.785,-4.521 3.383,-4.521 h 11.323 c 2.112,0 2.469,-1.253 1.959,-2.915 l -6.386,-27.009 c -0.75,-3.014 0.337,-4.055 2.57,-4.055 l 20.51,-0.002 c 2.334,-0.025 3.673,0.999 3.673,4.068 0,1.173 0.07,49.193 0,70.576 0,2.988 -1.442,4.138 -3.977,4.138 -23.617,0 -53.631,0.72 -77.122,1.249 -3.053,0.063 -4.832,-0.587 -4.832,-4.084 V -4.899 c 0,-2.76 1.325,-3.604 4.536,-3.431 C -52.614,-7.852 -12.422,-0.832 0,0"
             style="fill:#186036;fill-opacity:1;fill-rule:evenodd;stroke:none"
             id="path36" />
        </g>
        <g
           id="g38"
           transform="translate(197.8594,153.6689)">
          <path
             d="m 0,0 c -3.699,0.297 -6.189,1.513 -5.286,-3.008 0.854,-4.293 1.56,-10.445 4.168,-12.81 2.502,-2.314 13.101,-1.635 13.101,-1.635 4.531,0 4.725,-1.132 5.153,-3.73 0.447,-2.657 0.786,-4.521 -3.386,-4.521 H 2.438 c -2.125,0 -2.475,-1.253 -1.965,-2.915 l 6.385,-27.009 c 0.747,-3.014 -0.335,-4.055 -2.562,-4.055 l -20.518,-0.002 c -2.333,-0.025 -3.672,0.999 -3.672,4.068 0,1.173 -0.068,49.193 0,70.576 0,2.988 1.442,4.138 3.977,4.138 23.616,0 53.634,0.72 77.125,1.249 3.054,0.063 4.827,-0.587 4.827,-4.084 V -4.899 c 0,-2.76 -1.321,-3.604 -4.533,-3.431 C 52.604,-7.852 12.421,-0.832 0,0"
             style="fill:#186036;fill-opacity:1;fill-rule:evenodd;stroke:none"
             id="path40" />
        </g>
        <g
           id="g42"
           transform="translate(94.4336,40.8066)">
          <path
             d="m 0,0 -12.696,8.626 1.806,2.658 4.722,-3.208 11.857,17.453 -4.721,3.208 1.615,2.379 c 1.784,-1.212 3.271,-1.852 4.461,-1.919 1.19,-0.067 2.316,0.569 3.38,1.907 L 13.135,29.264 -2.811,5.795 1.806,2.658 Z"
             style="fill:#000000;fill-opacity:1;fill-rule:nonzero;stroke:none"
             id="path44" />
        </g>
        <g
           id="g46"
           transform="translate(123.9155,46.8242)">
          <path
             d="m 0,0 c 0.885,1.952 1.425,3.622 1.623,5.011 0.195,1.388 0.13,2.56 -0.195,3.512 -0.286,0.873 -0.665,1.556 -1.137,2.048 -0.474,0.493 -1.057,0.897 -1.749,1.211 -1.58,0.717 -3.094,0.722 -4.543,0.018 -1.45,-0.705 -2.661,-2.13 -3.633,-4.273 -0.547,-1.207 -0.844,-2.272 -0.891,-3.194 -0.047,-0.923 0.148,-1.824 0.585,-2.703 0.307,-0.619 0.739,-1.136 1.294,-1.55 0.555,-0.414 1.185,-0.782 1.891,-1.101 0.821,-0.374 1.773,-0.63 2.854,-0.772 1.081,-0.143 2.082,-0.137 3.003,0.019 0.1,0.186 0.231,0.432 0.393,0.738 C -0.343,-0.73 -0.175,-0.384 0,0 m -13.612,9.146 c 0.669,1.476 1.521,2.714 2.555,3.716 1.035,1.001 2.17,1.756 3.406,2.263 1.18,0.486 2.452,0.706 3.817,0.66 1.364,-0.046 2.637,-0.337 3.818,-0.872 1.322,-0.6 2.418,-1.364 3.289,-2.293 C 4.145,11.69 4.782,10.631 5.187,9.442 5.698,7.941 5.839,6.213 5.611,4.258 5.382,2.304 4.676,0.023 3.495,-2.582 2.417,-4.957 1.131,-7.086 -0.365,-8.969 c -1.496,-1.883 -3.082,-3.288 -4.756,-4.216 -1.779,-0.988 -3.62,-1.524 -5.522,-1.605 -1.901,-0.081 -3.989,0.393 -6.26,1.423 -0.514,0.233 -1.047,0.51 -1.598,0.83 -0.551,0.319 -1.042,0.669 -1.473,1.051 l 1.668,3.677 0.192,-0.087 c 0.239,-0.326 0.661,-0.725 1.266,-1.201 0.605,-0.475 1.26,-0.873 1.967,-1.194 2.515,-1.141 4.868,-1.209 7.056,-0.205 2.189,1.004 4.078,3.003 5.668,5.997 -1.342,-0.229 -2.55,-0.292 -3.626,-0.19 -1.077,0.101 -2.16,0.399 -3.251,0.893 -1.066,0.483 -1.983,1.039 -2.751,1.666 -0.768,0.627 -1.443,1.475 -2.027,2.544 -0.671,1.249 -0.999,2.593 -0.98,4.031 0.018,1.44 0.411,3.006 1.18,4.701"
             style="fill:#000000;fill-opacity:1;fill-rule:nonzero;stroke:none"
             id="path48" />
        </g>
        <g
           id="g50"
           transform="translate(144.3857,21.2793)">
          <path
             d="m 0,0 -14.858,3.854 0.807,3.111 5.526,-1.435 5.297,20.427 -5.525,1.432 0.721,2.783 c 2.088,-0.541 3.702,-0.644 4.845,-0.307 1.144,0.338 1.991,1.316 2.542,2.934 L 2.527,31.977 -4.596,4.512 0.807,3.11 Z"
             style="fill:#000000;fill-opacity:1;fill-rule:nonzero;stroke:none"
             id="path52" />
        </g>
        <g
           id="g54"
           transform="translate(167.9814,24.6182)">
          <path
             d="m 0,0 c 0.494,1.006 0.89,2.295 1.19,3.868 0.3,1.573 0.54,3.444 0.719,5.606 0.178,2.148 0.249,4.023 0.212,5.626 -0.038,1.599 -0.223,2.945 -0.557,4.033 -0.333,1.103 -0.845,1.962 -1.537,2.578 -0.691,0.616 -1.627,0.973 -2.807,1.071 -1.166,0.097 -2.148,-0.101 -2.945,-0.594 -0.797,-0.493 -1.46,-1.27 -1.985,-2.329 -0.51,-1.032 -0.91,-2.357 -1.2,-3.973 -0.289,-1.617 -0.519,-3.449 -0.689,-5.501 -0.181,-2.193 -0.266,-4.031 -0.255,-5.517 0.011,-1.485 0.193,-2.83 0.546,-4.033 0.318,-1.116 0.829,-1.996 1.531,-2.642 0.703,-0.645 1.659,-1.017 2.868,-1.117 1.165,-0.097 2.147,0.101 2.945,0.594 C -1.167,-1.838 -0.512,-1.062 0,0 M 6.187,9.119 C 5.72,3.486 4.559,-0.58 2.705,-3.078 0.85,-5.576 -1.784,-6.684 -5.198,-6.401 c -3.455,0.287 -5.88,1.838 -7.273,4.654 -1.393,2.817 -1.862,6.978 -1.405,12.485 0.469,5.661 1.63,9.735 3.484,12.218 1.853,2.484 4.487,3.586 7.9,3.302 3.455,-0.286 5.879,-1.852 7.27,-4.695 1.39,-2.846 1.86,-6.995 1.409,-12.444"
             style="fill:#000000;fill-opacity:1;fill-rule:nonzero;stroke:none"
             id="path56" />
        </g>
        <g
           id="g58"
           transform="translate(208.1377,36.2305)">
          <path
             d="m 0,0 c -0.221,1.049 -0.51,1.935 -0.871,2.656 -0.36,0.723 -0.797,1.31 -1.309,1.761 -0.563,0.499 -1.23,0.836 -2,1.013 -0.769,0.174 -1.681,0.165 -2.735,-0.027 -1.04,-0.189 -1.897,-0.507 -2.566,-0.95 -0.672,-0.445 -1.252,-1.019 -1.74,-1.724 -0.47,-0.717 -0.792,-1.473 -0.962,-2.271 -0.17,-0.798 -0.206,-1.696 -0.11,-2.696 z m -1.892,-15.581 c -3.702,-0.674 -6.765,-0.153 -9.191,1.56 -2.426,1.715 -3.987,4.494 -4.687,8.334 -0.689,3.787 -0.247,6.98 1.33,9.581 1.575,2.6 3.963,4.192 7.167,4.776 1.442,0.262 2.754,0.286 3.941,0.072 C -2.147,8.527 -1.058,8.053 -0.064,7.316 0.929,6.581 1.764,5.612 2.441,4.41 3.119,3.208 3.628,1.678 3.966,-0.181 l 0.386,-2.122 -16.1,-2.93 c 0.492,-2.704 1.548,-4.647 3.167,-5.828 1.619,-1.18 3.628,-1.552 6.027,-1.116 0.86,0.156 1.685,0.406 2.474,0.751 0.79,0.345 1.489,0.73 2.1,1.156 0.65,0.448 1.19,0.865 1.62,1.252 0.431,0.386 0.783,0.74 1.053,1.062 l 0.229,0.041 0.776,-4.264 c -0.425,-0.263 -0.952,-0.592 -1.582,-0.986 -0.631,-0.395 -1.202,-0.717 -1.715,-0.968 -0.725,-0.346 -1.385,-0.632 -1.982,-0.855 -0.597,-0.223 -1.368,-0.421 -2.311,-0.593"
             style="fill:#000000;fill-opacity:1;fill-rule:nonzero;stroke:none"
             id="path60" />
        </g>
        <g
           id="g62"
           transform="translate(226.6465,26.6104)">
          <path
             d="m 0,0 -4.811,-1.545 -1.841,5.737 4.811,1.545 z"
             style="fill:#000000;fill-opacity:1;fill-rule:nonzero;stroke:none"
             id="path64" />
        </g>
        <g
           id="g66"
           transform="translate(242.8301,68.124)">
          <path
             d="m 0,0 4.021,-33.047 -4.07,-1.977 -23.494,23.586 4.032,1.959 19.254,-19.699 -3.585,27.312 z"
             style="fill:#000000;fill-opacity:1;fill-rule:nonzero;stroke:none"
             id="path68" />
        </g>
        <g
           id="g70"
           transform="translate(260.5566,42.8633)">
          <path
             d="M 0,0 -4.305,-2.646 -7.46,2.488 -3.153,5.134 Z"
             style="fill:#000000;fill-opacity:1;fill-rule:nonzero;stroke:none"
             id="path72" />
        </g>
        <g
           id="g74"
           transform="translate(56.918,190.4482)">
          <path
             d="m 0,0 -31.238,4.396 -1.674,-11.896 -4.187,0.59 4.011,28.501 4.187,-0.589 L -30.575,9.106 0.663,4.71 Z"
             style="fill:#000000;fill-opacity:1;fill-rule:nonzero;stroke:none"
             id="path76" />
        </g>
        <g
           id="g78"
           transform="translate(65.6733,221.2861)">
          <path
             d="m 0,0 c -0.92,-2.358 -2.119,-4.375 -3.598,-6.049 -1.479,-1.676 -3.223,-2.93 -5.232,-3.762 -2.024,-0.827 -4.272,-1.188 -6.741,-1.084 -2.471,0.104 -5.123,0.709 -7.958,1.815 -2.686,1.048 -4.945,2.363 -6.778,3.946 -1.832,1.583 -3.228,3.37 -4.188,5.361 -0.932,1.928 -1.407,4.039 -1.424,6.332 -0.017,2.294 0.435,4.619 1.355,6.977 0.437,1.119 0.938,2.161 1.503,3.127 0.566,0.965 1.175,1.862 1.825,2.692 0.514,0.659 1.149,1.37 1.902,2.133 0.753,0.764 1.382,1.373 1.887,1.83 l 5.35,-2.087 -0.149,-0.38 c -0.708,-0.36 -1.396,-0.749 -2.066,-1.167 -0.671,-0.418 -1.469,-1.065 -2.396,-1.941 -0.796,-0.721 -1.571,-1.605 -2.324,-2.652 -0.752,-1.048 -1.39,-2.243 -1.914,-3.586 -1.252,-3.208 -1.055,-6.273 0.592,-9.192 1.645,-2.921 4.476,-5.164 8.49,-6.73 2.238,-0.873 4.295,-1.375 6.17,-1.504 1.875,-0.13 3.586,0.071 5.134,0.602 1.521,0.507 2.848,1.317 3.979,2.432 1.131,1.115 2.026,2.515 2.684,4.201 0.489,1.253 0.885,2.534 1.189,3.843 0.304,1.308 0.443,2.457 0.417,3.448 l -8.618,3.362 -3.003,-7.7 -3.895,1.519 4.716,12.087 14.548,-5.676 C 1.49,11.531 1.515,10.649 1.534,9.55 1.552,8.451 1.513,7.447 1.417,6.54 1.32,5.322 1.181,4.241 1.002,3.297 0.823,2.353 0.489,1.253 0,0"
             style="fill:#000000;fill-opacity:1;fill-rule:nonzero;stroke:none"
             id="path80" />
        </g>
        <g
           id="g82"
           transform="translate(82.5181,265.4277)">
          <path
             d="m 0,0 c 2.379,-2.048 3.587,-4.352 3.625,-6.91 0.038,-2.559 -0.994,-5.057 -3.094,-7.497 -0.502,-0.583 -1.225,-1.318 -2.17,-2.206 -0.944,-0.888 -1.771,-1.598 -2.482,-2.128 l -3.441,2.963 0.173,0.2 c 0.599,0.351 1.317,0.806 2.156,1.362 0.838,0.557 1.587,1.218 2.245,1.983 0.962,1.116 1.6,2.115 1.915,2.996 0.314,0.881 0.37,1.683 0.169,2.406 -0.203,0.746 -0.618,1.467 -1.243,2.164 -0.625,0.698 -1.4,1.443 -2.322,2.238 l -15.823,13.622 -4.937,-5.735 -2.877,2.478 8.042,9.339 z"
             style="fill:#000000;fill-opacity:1;fill-rule:nonzero;stroke:none"
             id="path84" />
        </g>
        <g
           id="g86"
           transform="translate(96.7617,284.1318)">
          <path
             d="m 0,0 -14.836,9.742 6.213,-16.617 z m -7.186,-23.707 -12.874,35.491 4.584,3.655 31.734,-20.451 -3.926,-3.131 -8.768,5.792 -10.689,-8.523 3.696,-9.836 z"
             style="fill:#000000;fill-opacity:1;fill-rule:nonzero;stroke:none"
             id="path88" />
        </g>
        <g
           id="g90"
           transform="translate(138.5371,290.6553)">
          <path
             d="m 0,0 -4.335,-1.958 -7.21,15.962 -14.998,-6.774 7.209,-15.962 -4.335,-1.958 -14.726,32.603 4.335,1.958 5.776,-12.787 14.999,6.774 -5.776,12.788 4.336,1.958 z"
             style="fill:#000000;fill-opacity:1;fill-rule:nonzero;stroke:none"
             id="path92" />
        </g>
        <g
           id="g94"
           transform="translate(168.4463,296.333)">
          <path
             d="m 0,0 -5.259,-0.891 -20.743,27.773 5.156,-30.416 -4.382,-0.742 -5.98,35.271 6.657,1.128 18.924,-25.522 -4.735,27.928 4.383,0.742 z"
             style="fill:#000000;fill-opacity:1;fill-rule:nonzero;stroke:none"
             id="path96" />
        </g>
        <g
           id="g98"
           transform="translate(214.4736,290.3164)">
          <path
             d="M 0,0 -5.207,1.149 -14,34.679 -20.646,4.554 l -4.341,0.958 7.706,34.934 6.593,-1.454 7.953,-30.761 6.1,27.662 4.34,-0.958 z"
             style="fill:#000000;fill-opacity:1;fill-rule:nonzero;stroke:none"
             id="path100" />
        </g>
        <g
           id="g102"
           transform="translate(240.5234,293.5513)">
          <path
             d="M 0,0 2.569,17.562 -9.872,4.916 Z m -24.524,-3.49 26.741,26.649 5.247,-2.613 -5.147,-37.4 -4.495,2.238 1.551,10.392 -12.237,6.093 -7.36,-7.501 z"
             style="fill:#000000;fill-opacity:1;fill-rule:nonzero;stroke:none"
             id="path104" />
        </g>
        <g
           id="g106"
           transform="translate(267.001,255.5991)">
          <path
             d="M 0,0 -3.562,3.154 16.876,26.23 -4.01,16.709 l -2.157,1.912 6.98,21.834 -20.436,-23.076 -3.327,2.947 23.718,26.781 4.857,-4.3 -6.515,-20.837 19.661,9.192 4.947,-4.38 z"
             style="fill:#000000;fill-opacity:1;fill-rule:nonzero;stroke:none"
             id="path108" />
        </g>
        <g
           id="g110"
           transform="translate(269.0254,252.3809)">
          <path
             d="M 0,0 29.438,20.327 42.148,1.92 38.669,-0.482 28.662,14.009 20.597,8.439 29.919,-5.064 26.44,-7.466 17.116,6.037 6.183,-1.512 16.188,-16.004 12.71,-18.407 Z"
             style="fill:#000000;fill-opacity:1;fill-rule:nonzero;stroke:none"
             id="path112" />
        </g>
        <g
           id="g114"
           transform="translate(308.6709,215.0337)">
          <path
             d="m 0,0 c 2.578,0.972 4.616,2.229 6.115,3.77 1.499,1.541 2.442,3.342 2.827,5.405 0.274,1.456 0.313,2.917 0.119,4.385 -0.193,1.467 -0.668,3.205 -1.426,5.213 l -1.281,3.394 -25.83,-9.74 1.28,-3.395 c 0.746,-1.978 1.556,-3.65 2.43,-5.015 0.875,-1.364 1.971,-2.5 3.288,-3.407 1.631,-1.148 3.466,-1.783 5.507,-1.904 C -4.932,-1.415 -2.606,-0.983 0,0 m 1.68,-4.657 c -3.058,-1.152 -6.048,-1.574 -8.973,-1.264 -2.925,0.309 -5.468,1.246 -7.633,2.809 -1.702,1.292 -3.062,2.744 -4.081,4.354 -1.017,1.61 -2.038,3.772 -3.06,6.485 l -2.909,7.711 33.474,12.622 2.873,-7.621 c 1.188,-3.147 1.882,-5.705 2.086,-7.674 0.202,-1.969 0.13,-3.739 -0.221,-5.308 C 12.627,4.761 11.365,2.377 9.451,0.303 7.537,-1.771 4.947,-3.424 1.68,-4.657"
             style="fill:#000000;fill-opacity:1;fill-rule:nonzero;stroke:none"
             id="path116" />
        </g>
        <g
           id="g118"
           transform="translate(332.2002,184.4263)">
          <path
             d="m 0,0 -21.488,9.053 -15.664,-2.305 -0.694,4.706 15.165,2.232 18.469,14.933 0.77,-5.229 -14.274,-11.427 16.982,-6.971 z"
             style="fill:#000000;fill-opacity:1;fill-rule:nonzero;stroke:none"
             id="path120" />
        </g>
      </g>
    </g>
  </g>
</svg>
